<svg width="21" height="21" viewBox="0 0 21 21" fill="none" xmlns="http://www.w3.org/2000/svg">
<path d="M14.218 10.0348C14.218 12.344 12.346 14.2161 10.0367 14.2161C7.72749 14.2161 5.85547 12.344 5.85547 10.0348C5.85547 7.72553 7.72749 5.85352 10.0367 5.85352C12.346 5.85352 14.218 7.72553 14.218 10.0348Z" stroke="#E5E5E5" stroke-width="1.50526"/>
<path d="M10.0344 1.67236C9.71889 1.95111 9.27715 2.67587 10.0344 3.34487M10.0344 16.7249C10.3499 17.0037 10.7917 17.7284 10.0344 18.3974M16.3063 3.76527C15.8619 3.73776 14.9895 3.94942 15.0555 5.0161M4.59522 14.6343C4.62273 15.0788 4.41106 15.9512 3.34438 15.8851M4.18291 3.763C4.15537 4.2079 4.36725 5.08119 5.43502 5.01511M15.0519 14.6364C15.4964 14.6104 16.3688 14.8106 16.3028 15.8191M18.397 10.0349C18.1182 9.71938 17.3935 9.27764 16.7245 10.0349M3.34438 9.61678C3.06563 9.93231 2.34088 10.374 1.67188 9.61678" stroke="#E5E5E5" stroke-width="1.50526" stroke-linecap="round"/>
</svg>
